<svg width="416" height="50" viewBox="0 0 416 50" fill="none" xmlns="http://www.w3.org/2000/svg">
<path fill-rule="evenodd" clip-rule="evenodd" d="M95.0033 6.53613C98.1833 6.53613 101.482 7.50813 104.191 9.45113L102.129 12.1311C99.9213 10.6001 98.0663 9.74613 95.2683 9.74613C90.4093 9.74613 86.6093 12.7791 86.6093 17.1971C86.6093 21.6141 90.4093 24.6471 95.2683 24.6471C98.2133 24.6471 100.156 23.7341 102.512 22.1441L104.574 24.8241C101.806 26.7971 98.3313 27.8581 95.0033 27.8581C88.3183 27.8581 82.0163 23.9111 82.0163 17.1671C82.0163 10.4231 88.3183 6.53613 95.0033 6.53613Z" fill="#007859"/>
<path fill-rule="evenodd" clip-rule="evenodd" d="M120.15 17.1086C123.272 17.1086 125.274 15.8126 125.274 13.5746C125.274 11.3956 123.36 10.1876 120.121 10.1876H113.73V17.1086H120.15ZM109.313 6.88965H120.474C125.657 6.88965 129.868 8.98065 129.868 13.5156C129.868 17.0496 127.276 18.9046 123.772 19.6996L130.516 27.5046H125.362L119.237 20.3186H113.73V27.5046H109.313V6.88965Z" fill="#007859"/>
<mask id="mask0" mask-type="alpha" maskUnits="userSpaceOnUse" x="135" y="1" width="20" height="27">
<path fill-rule="evenodd" clip-rule="evenodd" d="M135.107 1.00098H154.19V27.5055H135.107V1.00098Z" fill="white"/>
</mask>
<g mask="url(#mask0)">
<path fill-rule="evenodd" clip-rule="evenodd" d="M149.331 1L145.915 4.622H142.145L144.737 1H149.331ZM135.107 21.556V6.89H153.778V10.188H139.524V15.165H152.6V18.375H139.524V21.556C139.524 23.352 140.378 24.206 142.116 24.206H154.19V27.505H141.056C137.286 27.505 135.107 25.296 135.107 21.556Z" fill="#007859"/>
</g>
<path fill-rule="evenodd" clip-rule="evenodd" d="M169.413 24.2056C174.419 24.2056 177.776 21.4076 177.776 17.2266C177.776 13.0146 174.419 10.1876 169.413 10.1876H164.23V24.2056H169.413ZM159.812 6.88965H169.119C177.07 6.88965 182.371 11.0126 182.371 17.1966C182.371 23.3806 177.07 27.5046 169.119 27.5046H159.812V6.88965Z" fill="#007859"/>
<mask id="mask1" mask-type="alpha" maskUnits="userSpaceOnUse" x="0" y="1" width="416" height="49">
<path fill-rule="evenodd" clip-rule="evenodd" d="M0 49.383H415.251V1H0V49.383Z" fill="white"/>
</mask>
<g mask="url(#mask1)">
<path fill-rule="evenodd" clip-rule="evenodd" d="M187.402 27.5046H191.819V6.88965H187.402V27.5046Z" fill="#007859"/>
<path fill-rule="evenodd" clip-rule="evenodd" d="M196.56 10.1876V6.88965H216.822V10.1876H208.899V27.5046H204.482V10.1876H196.56Z" fill="#007859"/>
<path fill-rule="evenodd" clip-rule="evenodd" d="M243.027 19.3176L238.963 11.1306L234.898 19.3176H243.027ZM244.646 22.5276H233.279L230.804 27.5056H226.299L236.989 6.88965H241.495L252.185 27.5056H247.12L244.646 22.5276Z" fill="#007859"/>
<path fill-rule="evenodd" clip-rule="evenodd" d="M266.819 6.53613C270 6.53613 273.298 7.50813 276.007 9.45113L273.946 12.1311C271.737 10.6001 269.882 9.74613 267.085 9.74613C262.225 9.74613 258.426 12.7201 258.426 17.1381C258.426 21.4961 261.813 24.6471 266.937 24.6471C269.205 24.6471 271.296 24.0291 272.768 23.0571V19.1111H266.554V15.9601H277.185V24.6181C274.712 26.3851 271.208 27.8581 266.76 27.8581C258.986 27.8581 253.832 23.2631 253.832 17.1671C253.832 10.4231 260.134 6.53613 266.819 6.53613Z" fill="#007859"/>
<path fill-rule="evenodd" clip-rule="evenodd" d="M293.939 17.1086C297.06 17.1086 299.063 15.8126 299.063 13.5746C299.063 11.3956 297.149 10.1876 293.91 10.1876H287.519V17.1086H293.939ZM283.101 6.88965H294.263C299.446 6.88965 303.657 8.98065 303.657 13.5156C303.657 17.0496 301.066 18.9046 297.561 19.6996L304.305 27.5046H299.152L293.026 20.3186H287.519V27.5046H283.101V6.88965Z" fill="#007859"/>
<path fill-rule="evenodd" clip-rule="evenodd" d="M309.633 27.5046H314.051V6.88965H309.633V27.5046Z" fill="#007859"/>
<path fill-rule="evenodd" clip-rule="evenodd" d="M332.366 6.53613C335.547 6.53613 338.845 7.50813 341.554 9.45113L339.493 12.1311C337.284 10.6001 335.429 9.74613 332.632 9.74613C327.772 9.74613 323.973 12.7791 323.973 17.1971C323.973 21.6141 327.772 24.6471 332.632 24.6471C335.576 24.6471 337.52 23.7341 339.876 22.1441L341.937 24.8241C339.169 26.7971 335.694 27.8581 332.366 27.8581C325.681 27.8581 319.379 23.9111 319.379 17.1671C319.379 10.4231 325.681 6.53613 332.366 6.53613Z" fill="#007859"/>
<path fill-rule="evenodd" clip-rule="evenodd" d="M348.473 17.1971C348.473 21.3491 351.918 24.6481 356.925 24.6481C361.931 24.6481 365.376 21.3491 365.376 17.1971C365.376 13.0451 361.931 9.74613 356.925 9.74613C351.918 9.74613 348.473 13.0451 348.473 17.1971ZM343.878 17.1971C343.878 11.3661 349.297 6.53613 356.925 6.53613C364.552 6.53613 369.971 11.3661 369.971 17.1971C369.971 23.0281 364.552 27.8581 356.925 27.8581C349.297 27.8581 343.878 23.0281 343.878 17.1971Z" fill="#007859"/>
<path fill-rule="evenodd" clip-rule="evenodd" d="M374.414 6.88965H378.832V24.2056H391.936V27.5046H374.414V6.88965Z" fill="#007859"/>
<path fill-rule="evenodd" clip-rule="evenodd" d="M395.056 21.5556V6.88965H413.727V10.1876H399.473V15.1646H412.549V18.3746H399.473V21.5556C399.473 23.3516 400.327 24.2056 402.065 24.2056H414.139V27.5046H401.005C397.236 27.5046 395.056 25.2956 395.056 21.5556Z" fill="#007859"/>
<path fill-rule="evenodd" clip-rule="evenodd" d="M89.8578 37.4736C91.6118 37.4736 93.4298 38.0146 94.9238 39.0976L93.7868 40.5896C92.5688 39.7376 91.5458 39.2616 90.0038 39.2616C87.3248 39.2616 85.2308 40.9516 85.2308 43.4116C85.2308 45.8726 87.3248 47.5626 90.0038 47.5626C91.6278 47.5626 92.6998 47.0536 93.9988 46.1676L95.1348 47.6616C93.6078 48.7606 91.6928 49.3506 89.8578 49.3506C86.1718 49.3506 82.6978 47.1526 82.6978 43.3956C82.6978 39.6386 86.1718 37.4736 89.8578 37.4736Z" fill="#5E6A71"/>
<path fill-rule="evenodd" clip-rule="evenodd" d="M98.4818 43.4116C98.4818 45.7246 100.381 47.5616 103.142 47.5616C105.902 47.5616 107.801 45.7246 107.801 43.4116C107.801 41.0986 105.902 39.2616 103.142 39.2616C100.381 39.2616 98.4818 41.0986 98.4818 43.4116ZM95.9488 43.4116C95.9488 40.1636 98.9368 37.4736 103.142 37.4736C107.347 37.4736 110.335 40.1636 110.335 43.4116C110.335 46.6596 107.347 49.3496 103.142 49.3496C98.9368 49.3496 95.9488 46.6596 95.9488 43.4116Z" fill="#5E6A71"/>
<path fill-rule="evenodd" clip-rule="evenodd" d="M118.341 43.3629C120.062 43.3629 121.166 42.6399 121.166 41.3939C121.166 40.1789 120.111 39.5079 118.325 39.5079H114.801V43.3629H118.341ZM112.366 37.6699H118.519C121.377 37.6699 123.699 38.8349 123.699 41.3609C123.699 43.3299 122.27 44.3629 120.338 44.8059L124.056 49.1539H121.215L117.838 45.1509H114.801V49.1539H112.366V37.6699Z" fill="#5E6A71"/>
<path fill-rule="evenodd" clip-rule="evenodd" d="M132.55 43.8549C134.287 43.8549 135.408 43.0339 135.408 41.6389C135.408 40.2789 134.336 39.5069 132.534 39.5069H128.848V43.8549H132.55ZM126.413 37.6689H132.631C135.553 37.6689 137.94 38.9319 137.94 41.6389C137.94 44.3299 135.586 45.6919 132.631 45.6919H128.848V49.1539H126.413V37.6689Z" fill="#5E6A71"/>
<path fill-rule="evenodd" clip-rule="evenodd" d="M141.288 43.4116C141.288 45.7246 143.187 47.5616 145.948 47.5616C148.708 47.5616 150.607 45.7246 150.607 43.4116C150.607 41.0986 148.708 39.2616 145.948 39.2616C143.187 39.2616 141.288 41.0986 141.288 43.4116ZM138.755 43.4116C138.755 40.1636 141.743 37.4736 145.948 37.4736C150.153 37.4736 153.14 40.1636 153.14 43.4116C153.14 46.6596 150.153 49.3496 145.948 49.3496C141.743 49.3496 138.755 46.6596 138.755 43.4116Z" fill="#5E6A71"/>
<path fill-rule="evenodd" clip-rule="evenodd" d="M161.309 43.3629C163.03 43.3629 164.134 42.6399 164.134 41.3939C164.134 40.1789 163.079 39.5079 161.293 39.5079H157.769V43.3629H161.309ZM155.334 37.6699H161.488C164.345 37.6699 166.667 38.8349 166.667 41.3609C166.667 43.3299 165.238 44.3629 163.306 44.8059L167.024 49.1539H164.183L160.806 45.1509H157.769V49.1539H155.334V37.6699Z" fill="#5E6A71"/>
<path fill-rule="evenodd" clip-rule="evenodd" d="M176.898 44.5929L174.658 40.0319L172.417 44.5929H176.898ZM177.791 46.3809H171.524L170.161 49.1549H167.676L173.57 37.6699H176.054L181.948 49.1549H179.155L177.791 46.3809Z" fill="#5E6A71"/>
<path fill-rule="evenodd" clip-rule="evenodd" d="M180.975 39.5079V37.6699H192.145V39.5079H187.778V49.1539H185.343V39.5079H180.975Z" fill="#5E6A71"/>
<path fill-rule="evenodd" clip-rule="evenodd" d="M194.096 45.8399V37.6699H204.39V39.5079H196.532V42.2789H203.741V44.0689H196.532V45.8399C196.532 46.8409 197.003 47.3169 197.961 47.3169H204.617V49.1539H197.376C195.298 49.1539 194.096 47.9239 194.096 45.8399Z" fill="#5E6A71"/>
<path fill-rule="evenodd" clip-rule="evenodd" d="M216.439 40.3936V40.3606C216.439 39.5886 215.904 39.0646 215.141 39.0646C214.329 39.0646 213.793 39.6386 213.793 40.4426V40.4756C213.793 41.0496 214.02 41.4766 214.653 42.1816C215.823 41.7546 216.439 41.2136 216.439 40.3936ZM216.504 46.6436L213.971 44.0356C212.917 44.4956 212.461 45.2006 212.461 45.9386V45.9716C212.461 46.9396 213.257 47.6446 214.361 47.6446C215.141 47.6446 215.855 47.2676 216.504 46.6436ZM217.641 47.8256C216.667 48.7446 215.53 49.3186 214.15 49.3186C212.04 49.3186 210.448 48.0226 210.448 46.0376V46.0036C210.448 44.5286 211.309 43.4616 212.868 42.7886C212.218 41.9526 211.926 41.2296 211.926 40.3936V40.3606C211.926 38.8186 213.16 37.4736 215.189 37.4736C216.991 37.4736 218.21 38.7046 218.21 40.2466V40.2796C218.21 41.7886 217.219 42.6906 215.709 43.2646L217.657 45.2666C218.095 44.6096 218.502 43.8556 218.875 43.0506L220.385 43.8556C219.93 44.7746 219.427 45.6766 218.842 46.4796L220.628 48.3176L219.151 49.3836L217.641 47.8256Z" fill="#5E6A71"/>
<path fill-rule="evenodd" clip-rule="evenodd" d="M227.044 49.1529H229.48V37.6689H227.044V49.1529Z" fill="#5E6A71"/>
<path fill-rule="evenodd" clip-rule="evenodd" d="M235.326 40.9679V49.1549H232.89V37.6699H235.326L242.291 45.8399V37.6699H244.726V49.1549H242.291L235.326 40.9679Z" fill="#5E6A71"/>
<path fill-rule="evenodd" clip-rule="evenodd" d="M260.219 37.6699L254.569 49.1539H252.084L246.434 37.6699H249.227L253.481 46.7419L257.735 37.6699H260.219Z" fill="#5E6A71"/>
<path fill-rule="evenodd" clip-rule="evenodd" d="M261.518 45.8399V37.6699H271.813V39.5079H263.954V42.2789H271.163V44.0689H263.954V45.8399C263.954 46.8409 264.425 47.3169 265.383 47.3169H272.039V49.1539H264.798C262.72 49.1539 261.518 47.9239 261.518 45.8399Z" fill="#5E6A71"/>
<path fill-rule="evenodd" clip-rule="evenodd" d="M273.829 47.5296L274.966 45.8736C276.442 46.9726 278.457 47.4806 280.193 47.4806C281.996 47.4806 283.474 46.9396 283.474 46.0866C283.474 45.2006 281.834 44.8556 279.95 44.4456C277.352 43.8876 274.267 43.2316 274.267 40.9346C274.267 38.8016 276.898 37.4736 279.901 37.4736C281.963 37.4736 284.123 38.0636 285.682 39.1306L284.545 40.7876C283.262 39.8026 281.541 39.3106 279.95 39.3106C278.326 39.3106 276.767 39.8196 276.767 40.6396C276.767 41.4116 278.261 41.7226 280.047 42.0836C282.694 42.6256 285.974 43.2976 285.974 45.7916C285.974 48.0546 283.278 49.3506 280.225 49.3506C277.872 49.3506 275.501 48.6456 273.829 47.5296Z" fill="#5E6A71"/>
<path fill-rule="evenodd" clip-rule="evenodd" d="M287.03 39.5079V37.6699H298.201V39.5079H293.834V49.1539H291.398V39.5079H287.03Z" fill="#5E6A71"/>
<path fill-rule="evenodd" clip-rule="evenodd" d="M310.916 37.6699H313.514V49.1539H311.079V40.5899L306.564 47.0049L302.182 40.7869V49.1539H300.07V37.6699H302.668L306.792 43.5109L310.916 37.6699Z" fill="#5E6A71"/>
<path fill-rule="evenodd" clip-rule="evenodd" d="M316.357 45.8399V37.6699H326.651V39.5079H318.793V42.2789H326.002V44.0689H318.793V45.8399C318.793 46.8409 319.264 47.3169 320.222 47.3169H326.878V49.1539H319.637C317.559 49.1539 316.357 47.9239 316.357 45.8399Z" fill="#5E6A71"/>
<path fill-rule="evenodd" clip-rule="evenodd" d="M331.996 40.9679V49.1549H329.56V37.6699H331.996L338.961 45.8399V37.6699H341.396V49.1549H338.961L331.996 40.9679Z" fill="#5E6A71"/>
<path fill-rule="evenodd" clip-rule="evenodd" d="M343.266 39.5079V37.6699H354.437V39.5079H350.069V49.1539H347.634V39.5079H343.266Z" fill="#5E6A71"/>
<path fill-rule="evenodd" clip-rule="evenodd" d="M370.107 45.7579C370.107 44.7899 369.231 44.2489 367.801 44.2489H363.288V47.3169H367.786C369.231 47.3169 370.107 46.7419 370.107 45.7579ZM363.288 39.5079V42.4609H367.314C368.744 42.4609 369.653 41.9189 369.653 40.9679C369.653 40.0489 368.775 39.5079 367.298 39.5079H363.288ZM372.689 45.9389C372.689 48.0379 370.611 49.1539 367.98 49.1539H360.852V37.6699H367.494C370.091 37.6699 372.17 38.7369 372.17 40.8039C372.17 41.9689 371.488 42.7879 370.416 43.2649C371.779 43.6749 372.689 44.5439 372.689 45.9389Z" fill="#5E6A71"/>
<path fill-rule="evenodd" clip-rule="evenodd" d="M382.238 44.5929L379.998 40.0319L377.757 44.5929H382.238ZM383.131 46.3809H376.863L375.5 49.1549H373.016L378.909 37.6699H381.393L387.287 49.1549H384.495L383.131 46.3809Z" fill="#5E6A71"/>
<path fill-rule="evenodd" clip-rule="evenodd" d="M390.78 40.9679V49.1549H388.344V37.6699H390.78L397.745 45.8399V37.6699H400.18V49.1549H397.745L390.78 40.9679Z" fill="#5E6A71"/>
<path fill-rule="evenodd" clip-rule="evenodd" d="M407.669 43.8059L405.704 45.5299V49.1549H403.269V37.6699H405.704V43.1999L411.793 37.6699H414.634L409.357 42.3139L415.251 49.1549H412.263L407.669 43.8059Z" fill="#5E6A71"/>
<path fill-rule="evenodd" clip-rule="evenodd" d="M46.4774 32.5665L54.0334 28.5195L59.6504 40.1915H51.2944C51.2944 40.1975 49.6864 40.1975 49.0434 38.7485C48.4444 37.1455 46.4914 32.5685 46.4774 32.5665Z" fill="#5E6A71"/>
<path fill-rule="evenodd" clip-rule="evenodd" d="M0.672974 49.356H61.444V43.917H0.672974V49.356Z" fill="#5E6A71"/>
<path fill-rule="evenodd" clip-rule="evenodd" d="M65.9535 9.49524C65.9405 9.49324 56.3915 14.9802 54.1545 15.8142C52.0985 16.6272 51.3265 15.5532 51.0795 15.1772C50.5275 14.3332 49.6215 11.5502 49.4935 11.1312C49.5485 11.1432 50.0765 11.2472 51.2985 10.9372C52.7525 10.5682 65.9405 3.19424 65.9535 3.19824V9.49524Z" fill="#007859"/>
<path fill-rule="evenodd" clip-rule="evenodd" d="M50.6576 20.794L44.3826 6.88699H35.2536L22.4296 30.813C22.4406 30.816 28.7396 30.618 32.7766 27.576C33.7976 26.976 36.6746 19.418 39.3106 14.335L43.4126 24.605C37.2126 27.779 31.3246 30.564 28.1536 31.46C19.7876 33.87 9.59759 35.315 5.93759 32.074C2.49459 29.018 10.4446 16.221 25.4806 13.374C27.9186 12.83 29.3416 12.97 29.3416 12.985C29.3416 12.97 28.3106 8.60899 27.5086 7.68999C26.3876 6.31799 25.2886 6.03599 23.6516 6.24399C20.3966 6.43799 6.55059 10.129 1.08759 21.665C-1.95941 28.219 2.09259 34.839 4.71459 36.755C5.93259 37.646 13.7956 44.695 31.9766 37.568C49.8926 30.618 65.9406 19.672 65.9536 19.672V12.349C65.9466 12.34 58.8716 16.395 50.6576 20.794Z" fill="#5E6A71"/>
</g>
</svg>
