<svg width="230" height="40" viewBox="0 0 230 40" fill="none" xmlns="http://www.w3.org/2000/svg">
<path d="M121.81 17.5702H121L120.81 16.7302C120.535 17.0596 120.194 17.3285 119.81 17.5202C119.446 17.6735 119.055 17.7485 118.66 17.7402C118.165 17.7468 117.674 17.648 117.22 17.4502C116.81 17.2592 116.445 16.983 116.15 16.6402C115.849 16.2909 115.618 15.8869 115.47 15.4502C115.316 14.9824 115.238 14.4928 115.24 14.0002C115.238 13.511 115.316 13.0247 115.47 12.5602C115.618 12.1236 115.849 11.7195 116.15 11.3702C116.445 11.0274 116.81 10.7513 117.22 10.5602C117.672 10.3545 118.164 10.252 118.66 10.2602C119.033 10.2572 119.404 10.3112 119.76 10.4202C120.099 10.514 120.418 10.67 120.7 10.8802C120.977 11.0839 121.208 11.3427 121.38 11.6402C121.564 11.9668 121.68 12.3275 121.72 12.7002H120.5C120.468 12.4843 120.393 12.2769 120.28 12.0902C120.173 11.9155 120.034 11.7628 119.87 11.6402C119.699 11.5206 119.51 11.4294 119.31 11.3702C119.099 11.3102 118.88 11.2799 118.66 11.2802C118.313 11.2718 117.969 11.3508 117.66 11.5102C117.39 11.6594 117.16 11.8722 116.99 12.1302C116.809 12.3944 116.677 12.6891 116.6 13.0002C116.44 13.6573 116.44 14.3431 116.6 15.0002C116.678 15.3138 116.81 15.6115 116.99 15.8802C117.164 16.1321 117.393 16.3408 117.66 16.4902C118.238 16.7586 118.897 16.7945 119.5 16.5902C119.736 16.5138 119.949 16.3798 120.12 16.2002C120.295 16.0256 120.428 15.8137 120.51 15.5802C120.595 15.3147 120.642 15.0387 120.65 14.7602H118.75V13.8102H121.75L121.81 17.5702Z" fill="#4E98CD"/>
<path d="M123.42 10.4297H124.67V16.4897H128.3V17.5697H123.42L123.42 10.4297Z" fill="#4E98CD"/>
<path fill-rule="evenodd" clip-rule="evenodd" d="M133.88 10.56C133.432 10.3544 132.943 10.2519 132.45 10.26C131.944 10.2462 131.441 10.3488 130.98 10.56C130.57 10.7511 130.205 11.0272 129.91 11.37C129.609 11.7193 129.378 12.1234 129.23 12.56C129.071 13.0232 128.993 13.5104 129 14C129.003 14.4947 129.091 14.9851 129.26 15.45C129.408 15.8867 129.639 16.2907 129.94 16.64C130.235 16.9828 130.6 17.2589 131.01 17.45C131.928 17.8362 132.962 17.8362 133.88 17.45C134.291 17.2564 134.659 16.9807 134.96 16.64C135.254 16.2877 135.481 15.8844 135.63 15.45C135.792 14.9839 135.873 14.4935 135.87 14C135.873 13.5098 135.792 13.0227 135.63 12.56C135.481 12.1257 135.254 11.7223 134.96 11.37C134.659 11.0293 134.291 10.7537 133.88 10.56ZM131.45 11.49C131.759 11.3306 132.103 11.2515 132.45 11.26V11.28C132.796 11.2623 133.141 11.3346 133.45 11.49C133.723 11.6388 133.957 11.8516 134.13 12.11C134.308 12.3747 134.437 12.6694 134.51 12.98C134.683 13.6354 134.683 14.3246 134.51 14.98C134.435 15.2931 134.307 15.5908 134.13 15.86C133.953 16.1131 133.721 16.3219 133.45 16.47C133.142 16.6323 132.798 16.7116 132.45 16.7C132.103 16.7085 131.759 16.6294 131.45 16.47C131.18 16.3244 130.95 16.1149 130.78 15.86C130.596 15.5935 130.464 15.2951 130.39 14.98C130.23 14.3229 130.23 13.6371 130.39 12.98C130.462 12.6674 130.595 12.3719 130.78 12.11C130.947 11.8498 131.178 11.6364 131.45 11.49Z" fill="#4E98CD"/>
<path fill-rule="evenodd" clip-rule="evenodd" d="M137.26 10.4304H140.73C141.278 10.405 141.818 10.5595 142.27 10.8704C142.668 11.1935 142.884 11.6893 142.85 12.2004C142.859 12.531 142.765 12.8561 142.58 13.1304C142.388 13.3917 142.129 13.5957 141.83 13.7204C142.231 13.7887 142.59 14.0112 142.83 14.3404C143.064 14.7035 143.182 15.1288 143.17 15.5604C143.173 15.8279 143.122 16.0931 143.02 16.3404C142.92 16.5876 142.759 16.8046 142.55 16.9704C142.305 17.1628 142.027 17.3086 141.73 17.4004C141.343 17.5071 140.942 17.5576 140.54 17.5504H137.26V10.4304ZM138.51 13.4304H140.51C140.782 13.442 141.049 13.353 141.26 13.1804C141.465 12.9906 141.575 12.7194 141.56 12.4404C141.589 12.1594 141.49 11.8803 141.29 11.6804C141.064 11.5181 140.788 11.4403 140.51 11.4604H138.51V13.4304ZM140.72 16.5604H138.51V14.3304H140.72C141.04 14.3118 141.354 14.4155 141.6 14.6204C141.825 14.8274 141.943 15.1257 141.92 15.4304C141.937 15.743 141.82 16.0481 141.6 16.2704C141.354 16.4754 141.04 16.579 140.72 16.5604Z" fill="#4E98CD"/>
<path fill-rule="evenodd" clip-rule="evenodd" d="M147.79 10.4297H146.46L143.71 17.5697H145L145.68 15.6797H148.53L149.2 17.5697H150.54L147.79 10.4297ZM148.2 14.7297H146.02L147.13 11.6597L148.2 14.7297Z" fill="#4E98CD"/>
<path d="M151.47 10.4297H152.72V16.4897H156.35V17.5697H151.47V10.4297Z" fill="#4E98CD"/>
<path d="M165.31 12.7003C165.257 12.5032 165.183 12.3122 165.09 12.1303C164.992 11.9637 164.871 11.8122 164.73 11.6803C164.579 11.5475 164.402 11.4486 164.21 11.3903C163.991 11.3146 163.761 11.2774 163.53 11.2803C163.183 11.2719 162.839 11.351 162.53 11.5103C162.258 11.6567 162.027 11.8701 161.86 12.1303C161.675 12.3923 161.542 12.6878 161.47 13.0003C161.31 13.6574 161.31 14.3433 161.47 15.0003C161.544 15.3154 161.676 15.6138 161.86 15.8803C162.03 16.1353 162.26 16.3447 162.53 16.4903C162.839 16.6497 163.183 16.7288 163.53 16.7203C163.785 16.7248 164.037 16.6736 164.27 16.5703C164.477 16.4766 164.663 16.3442 164.82 16.1803C164.974 16.0031 165.096 15.7999 165.18 15.5803C165.264 15.3441 165.321 15.0992 165.35 14.8503H166.57C166.548 15.254 166.453 15.6504 166.29 16.0203C166.137 16.3622 165.923 16.6739 165.66 16.9403C165.387 17.1949 165.068 17.3951 164.72 17.5303C164.34 17.6737 163.936 17.7449 163.53 17.7403C163.035 17.7479 162.544 17.649 162.09 17.4503C161.68 17.2593 161.315 16.9832 161.02 16.6403C160.719 16.291 160.488 15.887 160.34 15.4503C160.181 14.9837 160.103 14.4933 160.11 14.0003C160.103 13.5107 160.181 13.0236 160.34 12.5603C160.488 12.1237 160.719 11.7197 161.02 11.3703C161.315 11.0275 161.68 10.7514 162.09 10.5603C162.541 10.3536 163.034 10.2511 163.53 10.2603C163.913 10.2599 164.294 10.3172 164.66 10.4303C164.998 10.5291 165.314 10.6921 165.59 10.9103C165.861 11.1146 166.086 11.3735 166.25 11.6703C166.416 11.9808 166.521 12.3203 166.56 12.6703L165.31 12.7003Z" fill="#4E98CD"/>
<path fill-rule="evenodd" clip-rule="evenodd" d="M172.43 10.5603C171.982 10.3547 171.493 10.2522 171 10.2603C170.504 10.2511 170.011 10.3536 169.56 10.5603C169.15 10.7514 168.785 11.0275 168.49 11.3703C168.189 11.7197 167.958 12.1237 167.81 12.5603C167.651 13.0236 167.573 13.5107 167.58 14.0003C167.573 14.4933 167.651 14.9837 167.81 15.4503C167.958 15.887 168.189 16.291 168.49 16.6403C168.785 16.9832 169.15 17.2593 169.56 17.4503C170.478 17.8365 171.512 17.8365 172.43 17.4503C172.841 17.2567 173.209 16.981 173.51 16.6403C173.804 16.288 174.031 15.8847 174.18 15.4503C174.342 14.9842 174.423 14.4938 174.42 14.0003C174.423 13.5101 174.342 13.023 174.18 12.5603C174.031 12.126 173.804 11.7227 173.51 11.3703C173.209 11.0296 172.841 10.754 172.43 10.5603ZM170 11.4903C170.309 11.331 170.653 11.2519 171 11.2603V11.2803C171.327 11.2789 171.65 11.3579 171.94 11.5103C172.213 11.6592 172.447 11.8719 172.62 12.1303C172.798 12.395 172.927 12.6898 173 13.0003C173.173 13.6557 173.173 14.3449 173 15.0003C172.962 15.306 172.875 15.6034 172.74 15.8803C172.563 16.1334 172.331 16.3422 172.06 16.4903C171.752 16.6527 171.408 16.7319 171.06 16.7203C170.713 16.7288 170.369 16.6497 170.06 16.4903C169.79 16.3447 169.56 16.1353 169.39 15.8803C169.206 15.6138 169.074 15.3154 169 15.0003C168.84 14.3433 168.84 13.6574 169 13.0003C169.051 12.6851 169.163 12.3829 169.33 12.1103C169.497 11.8501 169.728 11.6367 170 11.4903Z" fill="#4E98CD"/>
<path d="M175 10.4297H176.3L178.09 16.0797L179.92 10.4297H181.19L178.75 17.5697H177.36L175 10.4297Z" fill="#4E98CD"/>
<path d="M182.17 10.4297H187.31V11.5097H183.42V13.3797H187V14.3797H183.4V16.4697H187.4V17.5497H182.19L182.17 10.4297Z" fill="#4E98CD"/>
<path fill-rule="evenodd" clip-rule="evenodd" d="M192.13 10.4297H188.72L188.75 17.5497H190V14.6097H191.83C192.068 14.6044 192.305 14.6417 192.53 14.7197C192.707 14.7919 192.86 14.9134 192.97 15.0697C193.084 15.2489 193.159 15.4498 193.19 15.6597C193.234 15.9375 193.254 16.2185 193.25 16.4997C193.24 16.6796 193.24 16.8598 193.25 17.0397C193.264 17.2211 193.322 17.3964 193.42 17.5497H194.76C194.593 17.3396 194.489 17.0865 194.46 16.8197C194.397 16.4396 194.367 16.0549 194.37 15.6697C194.375 15.4317 194.338 15.1946 194.26 14.9697C194.2 14.8025 194.112 14.6469 194 14.5097C193.9 14.4049 193.781 14.3201 193.65 14.2597C193.542 14.2108 193.427 14.1771 193.31 14.1597L193.59 14.0397C193.74 13.9638 193.875 13.8623 193.99 13.7397C194.139 13.583 194.258 13.3999 194.34 13.1997C194.45 12.9338 194.501 12.6472 194.49 12.3597C194.518 11.8215 194.301 11.2993 193.9 10.9397C193.389 10.5651 192.762 10.3844 192.13 10.4297ZM192 13.6797H190L189.98 11.4897H191.98C192.133 11.4745 192.287 11.4745 192.44 11.4897C192.583 11.5159 192.719 11.5703 192.84 11.6497C192.964 11.7342 193.061 11.8521 193.12 11.9897C193.19 12.1644 193.224 12.3515 193.22 12.5397C193.239 12.8567 193.127 13.1676 192.91 13.3997C192.652 13.6039 192.328 13.7038 192 13.6797Z" fill="#4E98CD"/>
<path fill-rule="evenodd" clip-rule="evenodd" d="M199.25 10.4297H197.92L195.19 17.5697H196.48L197.15 15.6797H200L200.66 17.5697H202L199.25 10.4297ZM199.66 14.7297H197.48L198.59 11.6597L199.66 14.7297Z" fill="#4E98CD"/>
<path d="M209.16 17.5703H208.36L208.17 16.7303C207.895 17.0597 207.554 17.3286 207.17 17.5203C206.806 17.6736 206.415 17.7486 206.02 17.7403C205.525 17.7479 205.034 17.649 204.58 17.4503C204.17 17.2593 203.805 16.9832 203.51 16.6403C203.209 16.291 202.978 15.887 202.83 15.4503C202.671 14.9837 202.593 14.4933 202.6 14.0003C202.593 13.5107 202.671 13.0236 202.83 12.5603C202.978 12.1237 203.209 11.7197 203.51 11.3703C203.805 11.0275 204.17 10.7514 204.58 10.5603C205.031 10.3536 205.524 10.2511 206.02 10.2603C206.393 10.2574 206.764 10.3113 207.12 10.4203C207.459 10.5141 207.778 10.6701 208.06 10.8803C208.337 11.084 208.568 11.3428 208.74 11.6403C208.924 11.9669 209.04 12.3276 209.08 12.7003H207.86C207.828 12.4844 207.753 12.277 207.64 12.0903C207.533 11.9156 207.394 11.7629 207.23 11.6403C207.059 11.5207 206.87 11.4295 206.67 11.3703C206.459 11.3103 206.24 11.2801 206.02 11.2803C205.673 11.2719 205.329 11.351 205.02 11.5103C204.748 11.6567 204.517 11.8701 204.35 12.1303C204.179 12.3953 204.06 12.6907 204 13.0003C203.84 13.6574 203.84 14.3433 204 15.0003C204.074 15.3154 204.206 15.6138 204.39 15.8803C204.56 16.1353 204.79 16.3447 205.06 16.4903C205.638 16.7588 206.297 16.7946 206.9 16.5903C207.136 16.514 207.349 16.3799 207.52 16.2003C207.695 16.0257 207.828 15.8138 207.91 15.5803C207.995 15.3148 208.042 15.0389 208.05 14.7603H206.15V13.8103H209.15L209.16 17.5703Z" fill="#4E98CD"/>
<path d="M210.77 10.4297H215.91V11.5097H212V13.3797H215.6V14.3797H212V16.4697H216V17.5497H210.79L210.77 10.4297Z" fill="#4E98CD"/>
<path d="M115.58 22.4297H116.83V29.5697H115.58V22.4297Z" fill="#4E98CD"/>
<path d="M118.56 22.4297H119.88L123.14 27.6897V22.4297H124.33V29.5697H123L119.75 24.3197V29.5697H118.56V22.4297Z" fill="#4E98CD"/>
<path d="M125.27 22.4297H126.57L128.36 28.0797L130.19 22.4297H131.46L129 29.5697H127.61L125.27 22.4297Z" fill="#4E98CD"/>
<path d="M132.44 22.4297H137.58V23.5097H133.69V25.3797H137.29V26.3797H133.69V28.4697H137.69V29.5497H132.48L132.44 22.4297Z" fill="#4E98CD"/>
<path d="M139.81 27.1898C139.8 27.431 139.848 27.671 139.95 27.8898C140.037 28.0778 140.171 28.2398 140.34 28.3598C140.508 28.4923 140.702 28.5877 140.91 28.6398C141.143 28.6933 141.381 28.7202 141.62 28.7198C141.856 28.7241 142.092 28.6937 142.32 28.6298C142.49 28.5733 142.648 28.4888 142.79 28.3798C142.904 28.2865 142.994 28.1662 143.05 28.0298C143.103 27.9065 143.13 27.7739 143.13 27.6398C143.142 27.4202 143.075 27.2035 142.94 27.0298C142.828 26.9121 142.691 26.82 142.54 26.7598C142.28 26.6698 141.99 26.5798 141.65 26.4898L140.41 26.1698C140.139 26.1079 139.879 26.0033 139.64 25.8598C139.458 25.7395 139.296 25.591 139.16 25.4198C139.042 25.2676 138.954 25.0946 138.9 24.9098C138.851 24.7306 138.828 24.5455 138.83 24.3598C138.82 24.0358 138.896 23.7149 139.05 23.4298C139.195 23.1653 139.4 22.9391 139.65 22.7698C139.904 22.5918 140.189 22.4629 140.49 22.3898C140.799 22.3018 141.119 22.2581 141.44 22.2598C141.795 22.2577 142.149 22.3083 142.49 22.4098C142.805 22.4957 143.1 22.6417 143.36 22.8398C143.609 23.0304 143.814 23.2726 143.96 23.5498C144.109 23.8618 144.184 24.204 144.18 24.5498H142.93C142.944 24.1602 142.769 23.788 142.46 23.5498C142.141 23.3472 141.768 23.2461 141.39 23.2598C141.24 23.25 141.09 23.25 140.94 23.2598C140.795 23.2944 140.654 23.3447 140.52 23.4098C140.393 23.482 140.284 23.581 140.2 23.6998C140.116 23.8344 140.074 23.9912 140.08 24.1498C140.064 24.371 140.149 24.5876 140.31 24.7398C140.486 24.9 140.699 25.0135 140.93 25.0698L141.24 25.1598L141.86 25.3198L142.52 25.4898L142.99 25.6198C143.209 25.6843 143.415 25.7858 143.6 25.9198C143.768 26.0406 143.913 26.1894 144.03 26.3598C144.146 26.5168 144.234 26.6928 144.29 26.8798C144.349 27.0606 144.379 27.2496 144.38 27.4398C144.381 27.7888 144.296 28.1326 144.13 28.4398C143.971 28.7149 143.752 28.9507 143.49 29.1298C143.213 29.3136 142.904 29.4457 142.58 29.5198C142.253 29.6046 141.917 29.6482 141.58 29.6498C141.192 29.6525 140.805 29.602 140.43 29.4998C140.089 29.4123 139.769 29.2558 139.49 29.0398C139.219 28.8285 139.001 28.5584 138.85 28.2498C138.68 27.8906 138.594 27.4972 138.6 27.0998L139.81 27.1898Z" fill="#4E98CD"/>
<path d="M145 22.4297H150.78V23.5097H148.51V29.5697H147.3V23.5097H145V22.4297Z" fill="#4E98CD"/>
<path d="M151.88 22.4297H153.64L155.64 28.0197L157.56 22.4297H159.3V29.5697H158.1V24.0597L156.1 29.5697H155.1L153.1 24.0597V29.5697H151.91L151.88 22.4297Z" fill="#4E98CD"/>
<path d="M161 22.4297H166.14V23.5097H162.25V25.3797H165.85V26.3797H162.25V28.4697H166.25V29.5497H161V22.4297Z" fill="#4E98CD"/>
<path d="M167.54 22.4297H168.86L172.12 27.6897V22.4297H173.31V29.5697H172L168.75 24.3197V29.5697H167.56L167.54 22.4297Z" fill="#4E98CD"/>
<path d="M174.38 22.4297H180.16V23.5097H177.89V29.5697H176.64V23.5097H174.38V22.4297Z" fill="#4E98CD"/>
<path fill-rule="evenodd" clip-rule="evenodd" d="M184.27 22.4304H187.74C188.288 22.405 188.829 22.5595 189.28 22.8704C189.916 23.4499 190.046 24.4012 189.59 25.1304C189.398 25.3917 189.139 25.5957 188.84 25.7204C189.242 25.7887 189.6 26.0112 189.84 26.3404C190.074 26.7035 190.192 27.1288 190.18 27.5604C190.183 27.8279 190.132 28.0931 190.03 28.3404C189.93 28.5876 189.769 28.8046 189.56 28.9704C189.315 29.1628 189.037 29.3086 188.74 29.4004C188.353 29.5071 187.952 29.5576 187.55 29.5504H184.27V22.4304ZM185.52 25.4304H187.52C187.792 25.442 188.059 25.353 188.27 25.1804C188.65 24.7525 188.65 24.1084 188.27 23.6804C188.044 23.5181 187.768 23.4403 187.49 23.4604H185.49L185.52 25.4304ZM187.73 28.5604H185.52V26.3304H187.73C188.05 26.3118 188.364 26.4155 188.61 26.6204C188.835 26.8274 188.953 27.1257 188.93 27.4304C188.947 27.743 188.83 28.0481 188.61 28.2704C188.364 28.4754 188.05 28.579 187.73 28.5604Z" fill="#4E98CD"/>
<path fill-rule="evenodd" clip-rule="evenodd" d="M194.8 22.4297H193.47L190.71 29.5697H192L192.69 27.6797H195.54L196.21 29.5697H197.55L194.8 22.4297ZM195.21 26.7297H193.03L194.14 23.6597L195.21 26.7297Z" fill="#4E98CD"/>
<path d="M198.43 22.4297H199.75L203 27.6897V22.4297H204.19V29.5697H202.9L199.65 24.3197V29.5697H198.46L198.43 22.4297Z" fill="#4E98CD"/>
<path d="M206 22.4297H207.25V25.6797L210.43 22.4297H211.97L209.12 25.2797L212.17 29.5697H210.61L208.27 26.1597L207.27 27.1597V29.5597H206V22.4297Z" fill="#4E98CD"/>
<path d="M213 22.4297H214.25V29.5697H213V22.4297Z" fill="#4E98CD"/>
<path d="M216 22.4297H217.32L220.58 27.6897V22.4297H221.78V29.5697H220.5L217.25 24.3197V29.5697H216V22.4297Z" fill="#4E98CD"/>
<path d="M229.78 29.5702H229L228.81 28.7302C228.535 29.0595 228.194 29.3285 227.81 29.5202C227.443 29.6746 227.048 29.7496 226.65 29.7402C226.158 29.7466 225.671 29.6477 225.22 29.4502C224.809 29.2565 224.441 28.9809 224.14 28.6402C223.846 28.2879 223.619 27.8845 223.47 27.4502C223.308 26.9841 223.227 26.4937 223.23 26.0002C223.227 25.51 223.308 25.0229 223.47 24.5602C223.619 24.1259 223.846 23.7225 224.14 23.3702C224.441 23.0295 224.809 22.7539 225.22 22.5602C225.668 22.3546 226.157 22.2521 226.65 22.2602C227.026 22.2565 227.4 22.3105 227.76 22.4202C228.097 22.512 228.413 22.6682 228.69 22.8802C228.97 23.0835 229.205 23.3422 229.38 23.6402C229.564 23.9668 229.68 24.3275 229.72 24.7002H228.5C228.468 24.4843 228.393 24.2769 228.28 24.0902C228.172 23.913 228.029 23.7598 227.86 23.6402C227.694 23.5187 227.508 23.4274 227.31 23.3702C227.095 23.3096 226.873 23.2793 226.65 23.2802C226.302 23.2686 225.958 23.3479 225.65 23.5102C225.378 23.6566 225.147 23.87 224.98 24.1302C224.795 24.3921 224.662 24.6876 224.59 25.0002C224.417 25.6556 224.417 26.3448 224.59 27.0002C224.664 27.3153 224.796 27.6137 224.98 27.8802C225.15 28.1351 225.38 28.3445 225.65 28.4902C225.958 28.6525 226.302 28.7318 226.65 28.7202C226.943 28.7371 227.235 28.6928 227.51 28.5902C227.746 28.5138 227.959 28.3798 228.13 28.2002C228.305 28.0256 228.438 27.8136 228.52 27.5802C228.606 27.3154 228.65 27.0387 228.65 26.7602H226.76V25.7602H229.76L229.78 29.5702Z" fill="#4E98CD"/>
<path d="M27.1 13.9203C26.9704 13.004 26.6502 12.1251 26.16 11.3403C25.6748 10.558 25.0593 9.86465 24.34 9.29026C22.827 8.07325 20.9417 7.41307 19 7.42026C17.3751 7.36819 15.7639 7.73311 14.32 8.48026C13.0618 9.16424 11.9906 10.1462 11.2 11.3403C10.3814 12.5869 9.78904 13.968 9.44998 15.4203C9.08729 16.9741 8.90607 18.5647 8.90998 20.1603C8.90714 21.6931 9.08844 23.2207 9.44998 24.7103C9.78991 26.1373 10.3826 27.4921 11.2 28.7103C11.9943 29.8959 13.0651 30.8706 14.32 31.5503C15.7666 32.287 17.3777 32.6416 19 32.5803C21.1936 32.7005 23.3303 31.8568 24.85 30.2703C26.3141 28.5889 27.2131 26.4901 27.42 24.2703H35.32C35.1562 26.4483 34.6112 28.5807 33.71 30.5703C32.8934 32.3744 31.7276 33.999 30.28 35.3503C28.8286 36.6717 27.129 37.6915 25.28 38.3503C23.2691 39.0889 21.1422 39.4615 19 39.4503C16.3552 39.4993 13.7303 38.9845 11.3 37.9403C9.12219 36.9936 7.17195 35.5923 5.57998 33.8303C3.99156 32.0448 2.77456 29.961 1.99998 27.7003C1.15052 25.2775 0.721013 22.7276 0.729981 20.1603C0.717984 17.5405 1.14732 14.9374 1.99998 12.4603C2.77074 10.1669 3.98361 8.04696 5.56998 6.22025C7.15418 4.43714 9.10551 3.018 11.29 2.06026C13.7234 1.01458 16.3519 0.499806 19 0.550255C20.9648 0.540236 22.9189 0.840603 24.79 1.44026C26.5552 1.99842 28.2074 2.86517 29.67 4.00026C31.1269 5.14672 32.3377 6.57519 33.23 8.20025C34.2028 9.96675 34.805 11.9131 35 13.9203H27.1Z" fill="#4E98CD"/>
<path d="M40.88 1.44043H49V38.5604H40.88V1.44043Z" fill="#4E98CD"/>
<path fill-rule="evenodd" clip-rule="evenodd" d="M56.22 1.43955H73.69C75.315 1.42397 76.9371 1.57814 78.53 1.89955C79.8638 2.16879 81.1334 2.69159 82.27 3.43955C83.3141 4.15079 84.1495 5.12772 84.69 6.26955C85.3016 7.64304 85.5955 9.13675 85.55 10.6395C85.602 12.286 85.1483 13.9088 84.25 15.2895C83.2917 16.6322 81.9989 17.7008 80.5 18.3895C82.5659 18.8927 84.3826 20.1204 85.62 21.8495C86.7832 23.6113 87.3735 25.6894 87.31 27.7995C87.3543 29.4848 86.9798 31.1547 86.22 32.6595C85.5167 33.9888 84.5093 35.1332 83.28 35.9995C82.0009 36.8828 80.5756 37.5328 79.07 37.9195C77.4839 38.337 75.8501 38.5454 74.21 38.5395H56.21L56.22 1.43955ZM64.38 16.4395H72.65C73.9239 16.508 75.185 16.1567 76.24 15.4395C77.2518 14.5985 77.777 13.308 77.64 11.9995C77.6713 11.2608 77.5093 10.5266 77.17 9.86955C76.8787 9.33431 76.4509 8.88577 75.93 8.56955C75.3691 8.27294 74.7594 8.07986 74.13 7.99955C73.428 7.86289 72.7152 7.78926 72 7.77955H64.38V16.4395ZM73.12 32.1995H64.38V21.9995H73.27C74.7932 21.9385 76.294 22.3813 77.54 23.2595C78.7002 24.2824 79.2991 25.8 79.15 27.3395C79.1833 28.1642 79.0151 28.9845 78.66 29.7295C78.3498 30.3307 77.8922 30.8433 77.33 31.2195C76.7422 31.5931 76.0918 31.8573 75.41 31.9995C74.6554 32.1437 73.8882 32.2107 73.12 32.1995Z" fill="#4E98CD"/>
<path d="M101.32 39V1" stroke="#4E98CD"/>
</svg>
