<svg width="67" height="74" viewBox="0 0 67 74" fill="none" xmlns="http://www.w3.org/2000/svg">
<path d="M46.9864 29.3989L54.6381 25.3717L60.2762 37.1513H51.819C51.819 37.1513 50.2082 37.1513 49.5034 35.7418C48.8993 34.0302 46.9864 29.3989 46.9864 29.3989Z" fill="#5E6A71"/>
<path d="M62.0885 40.8769H0.874748V46.3136H62.0885V40.8769Z" fill="#5E6A71"/>
<path d="M66.5184 6.2422C66.5184 6.2422 56.8531 11.7796 54.6381 12.5851C52.5238 13.3905 51.8191 12.283 51.517 11.981C50.913 11.1756 50.0068 8.3565 49.9062 7.95378C50.0068 7.95378 50.5102 8.05445 51.7184 7.75241C53.2286 7.34969 66.4178 0 66.5184 0V6.2422Z" fill="#007856"/>
<path d="M51.1143 17.6189L44.7714 3.62434H35.6095L22.7224 27.687C22.7224 27.687 29.0653 27.4856 33.0925 24.4652C34.0993 23.8611 37.0191 16.2094 39.6367 11.1754L43.7646 21.5455C37.5224 24.7673 31.5823 27.5863 28.3605 28.4924C19.9034 30.9088 9.63396 32.419 6.00946 29.0965C2.58633 25.9754 10.5401 13.0883 25.6422 10.2693C28.0585 9.76586 29.5687 9.86654 29.5687 9.86654C29.5687 9.86654 28.5619 5.43658 27.7564 4.53046C26.649 3.12093 25.5415 2.8189 23.8299 3.12094C20.5075 3.3223 6.61355 7.04747 1.07612 18.6257C-1.9443 25.2706 2.08292 31.9156 4.70062 33.8285C5.90878 34.7346 13.8625 41.7823 32.1864 34.6339C50.2082 27.5863 66.4177 16.6121 66.4177 16.6121V9.26245C66.5184 9.06109 59.4708 13.189 51.1143 17.6189Z" fill="#5E6A71"/>
<path d="M14.0646 51.4473C17.3871 51.4473 20.9109 52.4541 23.8306 54.5684L21.6156 57.3875C19.3 55.7766 17.2864 54.8705 14.3666 54.8705C9.23193 54.8705 5.20471 58.0923 5.20471 62.7236C5.20471 67.4555 9.23193 70.5766 14.3666 70.5766C17.4877 70.5766 19.5013 69.5698 22.0184 67.9589L24.2333 70.778C21.3136 72.8923 17.5884 73.9998 14.0646 73.9998C7.01696 73.9998 0.271365 69.7712 0.271365 62.6229C0.372046 55.5752 7.01696 51.4473 14.0646 51.4473Z" fill="#5E6A71"/>
<path d="M28.6633 51.8504H33.3953V73.6981H28.6633V51.8504Z" fill="#5E6A71"/>
<path d="M62.794 67.5566C62.794 71.5838 58.7667 73.6981 53.7327 73.6981H40.0402V51.8504H52.8266C57.8606 51.8504 61.7871 53.8641 61.7871 57.7906C61.7871 60.0056 60.4783 61.6165 58.4647 62.5226C61.0824 63.2273 62.794 64.9389 62.794 67.5566ZM44.7721 55.2736V60.9117H52.5245C55.2429 60.9117 57.0552 59.9049 57.0552 58.0926C57.0552 56.3811 55.3436 55.2736 52.5245 55.2736H44.7721ZM57.8606 67.2546C57.8606 65.4423 56.149 64.3349 53.4307 64.3349H44.7721V70.1743H53.4307C56.149 70.1743 57.8606 69.0668 57.8606 67.2546Z" fill="#5E6A71"/>
</svg>
